#!OML:ASF E:\motion texture\Top Level 1\Subject 1\Session 1\male.ASF
:FULLY-SPECIFIED
:DEGREES
190
root 6.58447 17.5663 4.78408 91.8997 -87.5553 -83.4285
lowerback 1.50649 -1.61811 0.665552
upperback -0.602664 -2.17995 5.21203
thorax -1.28586 -1.11962 5.06396
lowerneck -21.0751 -3.02707 -5.50558
upperneck 3.43216 -3.62466 8.75207
head 4.6499 -1.35682 3.29064
rclavicle -3.18055e-015 1.27222e-014
rhumerus -56.8236 -41.6502 -34.674
rradius 18.5448
rwrist 22.0401
rhand -16.2228 -33.7157
rfingers 7.12502
rthumb 9.98523 -63.4588
lclavicle -3.18055e-015 1.27222e-014
lhumerus -57.9414 42.3971 37.9806
lradius 18.5231
lwrist -41.1703
lhand -15.5879 28.8715
lfingers 7.12502
lthumb 10.5977 58.5843
rfemur -35.7961 1.69976 21.7007
rtibia 27.9485
rfoot 2.00632 -12.2055
rtoes 18.2721
lfemur 0.72027 -5.93755 -18.3264
ltibia 33.9741
lfoot -8.56351 -3.18397
ltoes -25.0971
191
root 6.414 17.587 4.74885 87.7943 -87.2416 -79.3595
lowerback 1.49751 -1.55641 0.911223
upperback -0.616401 -2.09565 5.29095
thorax -1.30768 -1.08074 5.00562
lowerneck -21.1144 -3.01904 -5.51173
upperneck 3.46366 -3.5969 8.62308
head 4.65983 -1.34949 3.2533
rclavicle 6.16232e-015 1.90833e-014
rhumerus -56.3515 -41.7585 -34.4437
rradius 18.5525
rwrist 21.7469
rhand -16.3677 -34.0831
rfingers 7.12502
rthumb 9.84541 -63.833
lclavicle 6.16232e-015 1.90833e-014
lhumerus -56.7489 41.582 38.6778
lradius 18.9339
lwrist -40.0064
lhand -15.3367 29.0297
lfingers 7.12502
lthumb 10.84 58.7299
rfemur -35.2115 1.72527 22.208
rtibia 28.1915
rfoot 1.36811 -12.1377
rtoes 18.5808
lfemur -0.235903 -5.69411 -17.5689
ltibia 35.9333
lfoot -6.1204 -3.90071
ltoes -24.69
192
root 6.24501 17.6061 4.71384 84.1057 -86.8692 -75.704
lowerback 1.47776 -1.50984 1.20383
upperback -0.643756 -2.03095 5.37558
thorax -1.33688 -1.05226 4.92711
lowerneck -21.1457 -3.00544 -5.51768
upperneck 3.54004 -3.5619 8.48067
head 4.68181 -1.33851 3.21249
rclavicle 1.37161e-014 -5.24792e-014
rhumerus -55.6852 -41.8101 -34.4481
rradius 18.5571
rwrist 21.532
rhand -16.3753 -34.2292
rfingers 7.12502
rthumb 9.8381 -63.9793
lclavicle 1.37161e-014 -5.24792e-014
lhumerus -55.501 40.7012 39.4874
lradius 19.377
lwrist -38.9054
lhand -15.1076 29.1386
lfingers 7.12502
lthumb 11.061 58.8272
rfemur -34.6264 1.67306 22.7793
rtibia 28.4286
rfoot 0.687162 -12.0928
rtoes 18.6697
lfemur -1.26576 -5.46599 -16.7638
ltibia 37.8846
lfoot -3.47358 -4.54708
ltoes -23.9304
193
root 6.07786 17.6232 4.67945 81.1097 -86.446 -72.745
lowerback 1.4551 -1.47274 1.53655
upperback -0.680215 -1.97832 5.46597
thorax -1.37363 -1.03045 4.83243
lowerneck -21.1606 -2.98643 -5.52242
upperneck 3.64588 -3.51936 8.32129
head 4.70964 -1.32457 3.16693
rclavicle 3.18055e-015 -6.99722e-014
rhumerus -54.7899 -41.7648 -34.739
rradius 18.584
rwrist 21.3135
rhand -16.248 -34.1973
rfingers 7.12502
rthumb 9.96087 -63.9417
lclavicle 3.18055e-015 -6.99722e-014
lhumerus -54.2075 39.7436 40.4121
lradius 19.858
lwrist -37.8258
lhand -14.9232 29.1998
lfingers 7.12502
lthumb 11.2388 58.8787
rfemur -34.0283 1.54759 23.4081
rtibia 28.6416
rfoot -0.00470878 -12.0411
rtoes 18.6264
lfemur -2.33989 -5.25883 -15.9341
ltibia 39.8181
lfoot -0.787296 -5.15507
ltoes -22.8349
194
root 5.91292 17.6384 4.64591 78.828 -85.9822 -70.519
lowerback 1.43448 -1.44088 1.905
upperback -0.711802 -1.93261 5.55784
thorax -1.40673 -1.01287 4.71936
lowerneck -21.159 -2.96199 -5.52871
upperneck 3.76851 -3.46928 8.15554
head 4.73971 -1.3074 3.12044
rclavicle -2.26615e-014 7.95139e-014
rhumerus -53.6391 -41.6007 -35.3573
rradius 18.6604
rwrist 21.0037
rhand -15.9849 -34.0514
rfingers 7.12502
rthumb 10.2147 -63.7834
lclavicle -2.26615e-014 7.95139e-014
lhumerus -52.856 38.6909 41.468
lradius 20.3833
lwrist -36.7101
lhand -14.7926 29.2264
lfingers 7.12502
lthumb 11.3648 58.8984
rfemur -33.4144 1.35876 24.084
rtibia 28.8477
rfoot -0.700746 -11.9665
rtoes 18.5205
lfemur -3.42891 -5.07447 -15.0978
ltibia 41.7431
lfoot 1.71715 -5.76875
ltoes -21.425
195
root 5.75044 17.6516 4.61331 77.2915 -85.4989 -69.0657
lowerback 1.43654 -1.41498 2.29446
upperback -0.733696 -1.89415 5.65297
thorax -1.44228 -0.999537 4.5988
lowerneck -21.1677 -2.93292 -5.54464
upperneck 3.91539 -3.41021 7.98451
head 4.77852 -1.28589 3.07477
rclavicle -4.07509e-014 5.40694e-014
rhumerus -52.2015 -41.2791 -36.3341
rradius 18.8117
rwrist 20.5358
rhand -15.6068 -33.8442
rfingers 7.12502
rthumb 10.5795 -63.558
lclavicle -4.07509e-014 5.40694e-014
lhumerus -51.4777 37.5453 42.6383
lradius 20.9583
lwrist -35.5157
lhand -14.7583 29.204
lfingers 7.12502
lthumb 11.3979 58.8742
rfemur -32.7716 1.12949 24.7875
rtibia 29.0344
rfoot -1.38852 -11.865
rtoes 18.3908
lfemur -4.51255 -4.89944 -14.2754
ltibia 43.6709
lfoot 3.79475 -6.37997
ltoes -19.8986
196
root 5.59045 17.6626 4.5817 76.4122 -85.0074 -68.3083
lowerback 1.46834 -1.38175 2.70078
upperback -0.738046 -1.84468 5.74071
thorax -1.4775 -0.981114 4.46151
lowerneck -21.188 -2.90309 -5.55885
upperneck 4.07849 -3.35043 7.81292
head 4.82427 -1.26382 3.02871
rclavicle 1.43125e-014 -8.42847e-014
rhumerus -50.5138 -40.7751 -37.6594
rradius 19.0686
rwrist 19.8379
rhand -15.1341 -33.6123
rfingers 7.12502
rthumb 11.0354 -63.3022
lclavicle 1.43125e-014 -8.42847e-014
lhumerus -50.0524 36.2746 43.9288
lradius 21.5901
lwrist -34.223
lhand -14.767 29.191
lfingers 7.12502
lthumb 11.3895 58.8617
rfemur -32.0868 0.890118 25.5064
rtibia 29.1928
rfoot -2.06105 -11.7418
rtoes 18.2672
lfemur -5.57535 -4.72227 -13.4705
ltibia 45.6159
lfoot 5.26049 -6.91489
ltoes -18.5346
197
root 5.43307 17.6718 4.55104 76.1735 -84.528 -68.2324
lowerback 1.5338 -1.3351 3.10572
upperback -0.722392 -1.77591 5.81926
thorax -1.51175 -0.95314 4.31572
lowerneck -21.219 -2.87633 -5.57708
upperneck 4.2536 -3.29387 7.64552
head 4.87603 -1.24305 2.9843
rclavicle -1.33186e-014 3.65764e-014
rhumerus -48.62 -40.076 -39.2817
rradius 19.4457
rwrist 18.919
rhand -14.5976 -33.3609
rfingers 7.12502
rthumb 11.5528 -63.0225
lclavicle -1.33186e-014 3.65764e-014
lhumerus -48.6029 34.8637 45.3254
lradius 22.2914
lwrist -32.8079
lhand -14.8051 29.2097
lfingers 7.12502
lthumb 11.3527 58.8824
rfemur -31.3542 0.676656 26.2236
rtibia 29.3128
rfoot -2.70638 -11.6041
rtoes 18.132
lfemur -6.61081 -4.51694 -12.6919
ltibia 47.57
lfoot 6.03652 -7.27171
ltoes -17.634
198
root 5.2777 17.6795 4.52104 76.3611 -84.072 -68.6199
lowerback 1.62319 -1.27301 3.49512
upperback -0.689196 -1.68529 5.88222
thorax -1.54164 -0.913976 4.16222
lowerneck -21.2501 -2.85335 -5.58671
upperneck 4.43647 -3.24405 7.47463
head 4.93069 -1.22586 2.93668
rclavicle -8.54774e-015 2.14687e-014
rhumerus -46.5626 -39.1151 -41.1927
rradius 19.9729
rwrist 17.7296
rhand -14.0373 -33.1163
rfingers 7.12502
rthumb 12.0931 -62.7469
lclavicle -8.54774e-015 2.14687e-014
lhumerus -47.1536 33.3049 46.7936
lradius 23.0709
lwrist -31.2749
lhand -14.8309 29.2283
lfingers 7.12502
lthumb 11.3279 58.9023
rfemur -30.5675 0.506023 26.9242
rtibia 29.3833
rfoot -3.32486 -11.4699
rtoes 17.9982
lfemur -7.61688 -4.27279 -11.9417
ltibia 49.5087
lfoot 6.15961 -7.39058
ltoes -17.3357
199
root 5.1237 17.6864 4.49166 76.91 -83.6478 -69.3994
lowerback 1.72089 -1.19383 3.85708
upperback -0.637263 -1.57204 5.93065
thorax -1.55646 -0.862963 4.00813
lowerneck -21.2778 -2.8327 -5.58779
upperneck 4.61912 -3.19855 7.29671
head 4.98495 -1.21151 2.88497
rclavicle 2.88238e-014 -7.95139e-015
rhumerus -44.4159 -37.924 -43.2804
rradius 20.6369
rwrist 16.3616
rhand -13.4973 -32.8639
rfingers 7.12502
rthumb 12.6138 -62.4631
lclavicle 2.88238e-014 -7.95139e-015
lhumerus -45.741 31.6381 48.2835
lradius 23.9297
lwrist -29.6651
lhand -14.8312 29.2704
lfingers 7.12502
lthumb 11.3275 58.9445
rfemur -29.7177 0.398878 27.5998
rtibia 29.3778
rfoot -3.89795 -11.3578
rtoes 17.8481
lfemur -8.59094 -3.96983 -11.2205
ltibia 51.4003
lfoot 5.74468 -7.26907
ltoes -17.639
200
root 4.97092 17.6932 4.46256 77.7097 -83.2633 -70.4425
lowerback 1.81868 -1.10214 4.18822
upperback -0.579689 -1.44185 5.95675
thorax -1.5647 -0.802699 3.84725
lowerneck -21.2994 -2.81066 -5.57183
upperneck 4.81096 -3.15453 7.10769
head 5.04102 -1.19858 2.82681
rclavicle -8.15017e-015 5.80451e-014
rhumerus -42.2491 -36.5181 -45.4666
rradius 21.4276
rwrist 14.8764
rhand -13.0231 -32.6372
rfingers 7.12502
rthumb 13.071 -62.2077
lclavicle -8.15017e-015 5.80451e-014
lhumerus -44.3975 29.8587 49.7604
lradius 24.8839
lwrist -27.971
lhand -14.7952 29.3293
lfingers 7.12502
lthumb 11.3623 59.0014
rfemur -28.8209 0.361387 28.2404
rtibia 29.2974
rfoot -4.43422 -11.2818
rtoes 17.7054
lfemur -9.54701 -3.5955 -10.5312
ltibia 53.2045
lfoot 4.97436 -6.96645
ltoes -18.2491
